<svg xmlns="http://www.w3.org/2000/svg" width="66.855" height="80.513" viewBox="0 0 66.855 80.513"><g transform="translate(-875.76 -431.983)"><path d="M31.337,79.305,13.513,60.227A30.093,30.093,0,0,1,10.744,57.6,42.872,42.872,0,0,1,5.1,50.123,36.46,36.46,0,0,1,.594,38.411a34.138,34.138,0,0,1,.62-15.336,9.383,9.383,0,0,0,3.517.723A6.432,6.432,0,0,0,7.928,23a7.01,7.01,0,0,0,2.825-3.194,10.489,10.489,0,0,0,1.786.143,7.434,7.434,0,0,0,5.777-2.172c1.425-1.561,2.005-3.918,1.725-7.008a11.621,11.621,0,0,0,2.385-2.667,8.357,8.357,0,0,0,1.216-2.946A6.685,6.685,0,0,0,23.3,1.485h0A32.7,32.7,0,0,1,33.237,0C41.4,0,52.879,2.914,61.21,16.8a30.273,30.273,0,0,1,4.625,16.768A31.747,31.747,0,0,1,62.057,47.2a44.324,44.324,0,0,1-6.46,9.167,36.235,36.235,0,0,1-3.424,3.354L31.337,79.305Zm1.757-57.486a10.544,10.544,0,1,0,7.455,3.088A10.474,10.474,0,0,0,33.095,21.819Z" transform="translate(876.264 432.483)" fill="#fff" stroke="rgba(0,0,0,0)" stroke-miterlimit="10" stroke-width="1"/><g transform="translate(882.064 437.552)"><circle cx="2.385" cy="2.385" r="2.385" transform="translate(45.871 23.026)" fill="#fe3dbc"/><circle cx="2.51" cy="2.51" r="2.51" transform="translate(36.332 44.866)" fill="#faaf00"/><path d="M929.717,449.975a2.183,2.183,0,0,1-1.586-.68l-5.021-5.272A2.191,2.191,0,0,1,926.283,441l5.021,5.272a2.191,2.191,0,0,1-1.587,3.7Z" transform="translate(-898.406 -440.322)" fill="#faaf00"/><path d="M947.215,462.674a2.191,2.191,0,0,1-1.59-3.7l4.519-4.77a2.19,2.19,0,0,1,3.179,3.014l-4.518,4.769A2.184,2.184,0,0,1,947.215,462.674Z" transform="translate(-906.365 -444.988)" fill="#faaf00"/><path d="M958.47,499.83a2.183,2.183,0,0,1-1.549-.642l-4.267-4.267a2.19,2.19,0,0,1,3.1-3.1l4.267,4.267a2.191,2.191,0,0,1-1.549,3.739Z" transform="translate(-908.835 -458.297)" fill="#faaf00"/><path d="M915.768,525.042a2.191,2.191,0,0,1-1.549-3.739l5.02-5.02a2.19,2.19,0,0,1,3.1,3.1l-5.02,5.02A2.182,2.182,0,0,1,915.768,525.042Z" transform="translate(-895.251 -466.941)" fill="#fe3dbc"/><path d="M899.621,505.791a2.188,2.188,0,0,1-1.7-.81l-3.263-4.017a2.19,2.19,0,0,1,3.4-2.762l3.263,4.017a2.19,2.19,0,0,1-1.7,3.572Z" transform="translate(-888.39 -460.492)" fill="#faaf00"/><path d="M887.423,480.9a2.191,2.191,0,0,1-.484-4.327l5.524-1.254a2.19,2.19,0,1,1,.97,4.271l-5.523,1.254A2.18,2.18,0,0,1,887.423,480.9Z" transform="translate(-885.234 -452.67)" fill="#fe3dbc"/></g></g></svg>